<svg xmlns="http://www.w3.org/2000/svg" viewBox="0 0 207.47 45.53"><defs><style>.cls-1{fill:#321f6f;}.cls-2{fill:#5f2180;}</style></defs><title>logo-preferente</title><g id="Capa_2" data-name="Capa 2"><g id="Capa_1-2" data-name="Capa 1"><path class="cls-1" d="M27.79,32c1.27.27,1.91.91,1.91,1.91a18.67,18.67,0,0,1-4.8,5.77,16,16,0,0,1-5.36,2.94,18.89,18.89,0,0,1-5.21.72A13.11,13.11,0,0,1,4.12,38.72Q0,34.09,0,25.21A27.74,27.74,0,0,1,5.1,8.35,18.29,18.29,0,0,1,11.58,3,19.92,19.92,0,0,1,20.7,1q5.19,0,7.89,2.76a9,9,0,0,1,2.71,6.5,8.84,8.84,0,0,1-2.07,6.08,6.78,6.78,0,0,1-5.36,2.35,10,10,0,0,1-2.63-.42,12.25,12.25,0,0,0,1.91-3.81A14.84,14.84,0,0,0,24,9.8a5.9,5.9,0,0,0-1-3.61A3.75,3.75,0,0,0,19.7,4.8a8,8,0,0,0-6.14,3.14,20.32,20.32,0,0,0-4.07,7.73,33.48,33.48,0,0,0-1.34,9.49q0,6.6,2.57,10a7.94,7.94,0,0,0,6.6,3.41,10,10,0,0,0,5.26-1.7A20.72,20.72,0,0,0,27.79,32Z"/><path class="cls-1" d="M36.45,42.43A4.15,4.15,0,0,1,35.16,39q0-2.43,1.73-14.67A144.19,144.19,0,0,0,38.62,6.83c0-3.49-.24-5.76-.72-6.83,3.5.28,5.8,1.65,6.91,4.13A17.83,17.83,0,0,1,53.54,2a9.81,9.81,0,0,1,7.53,3,10.32,10.32,0,0,1,2.76,7.3,14.08,14.08,0,0,1-3.92,9.69A14,14,0,0,1,55,25.26a16.82,16.82,0,0,1-6.68,1.29,19.78,19.78,0,0,1-2.94-.2l-.15-2.17h.41a11.25,11.25,0,0,0,9.28-4.33,10.53,10.53,0,0,0,2.37-6.5q0-5-4.07-6.6a10.3,10.3,0,0,0-7.73.52v.1q0,2-1.47,12.82a139.17,139.17,0,0,0-1.47,18.12,31.22,31.22,0,0,0,.31,5c-1.1.07-1.83.11-2.17.11A6.8,6.8,0,0,1,36.45,42.43Z"/><path class="cls-2" d="M74.25,25.83q1.84-6.7,4.46-9.87c1.73-2.12,3.35-3.17,4.84-3.17a3.83,3.83,0,0,1,3.38,1.67,7.63,7.63,0,0,1,1.13,4.33,8.25,8.25,0,0,1-1.57,4.88,5,5,0,0,1-4.3,2.21,4.43,4.43,0,0,1-1.71-.41,7.53,7.53,0,0,0,1.6-4.85c0-1.1-.44-1.65-1.34-1.65a3,3,0,0,0-2.11,1.37,15.62,15.62,0,0,0-2.17,3.76,29.76,29.76,0,0,0-1.73,6.14,43.89,43.89,0,0,0-.69,8c0,.34.08,1.8.26,4.38-1.1.07-1.81.1-2.12.1a6.75,6.75,0,0,1-4.22-1,4.1,4.1,0,0,1-1.29-3.4q0-1,1.08-7.94a75.31,75.31,0,0,0,1.08-11A30.86,30.86,0,0,0,68,11.76a9.56,9.56,0,0,1,5.25,3.37,8.84,8.84,0,0,1,1.5,5.11A33.74,33.74,0,0,1,74.25,25.83Z"/><path class="cls-2" d="M98.92,25.08A75,75,0,0,0,97.63,37.2q0,4.77.59,6.16c-2.68-.69-4.49-1.73-5.41-3.12a11,11,0,0,1-1.4-6.11,65.33,65.33,0,0,1,.83-7.83,65.5,65.5,0,0,0,.82-8.82,28.51,28.51,0,0,0-.31-4.85c.76-.07,1.47-.1,2.12-.1,2,0,3.38.33,4.15,1A4.34,4.34,0,0,1,100.18,17Q100.18,17.74,98.92,25.08ZM101,8a17.75,17.75,0,0,1-2.52.21q-5.31,0-5.31-3.71A12.17,12.17,0,0,1,93.89.83,17.76,17.76,0,0,1,96.42.62q5.31,0,5.31,3.71A12.25,12.25,0,0,1,101,8Z"/><path class="cls-2" d="M125.55,12.84a4.92,4.92,0,0,1,4.35,1.88,8.77,8.77,0,0,1,1.32,5.11,57.15,57.15,0,0,1-1,9,56.3,56.3,0,0,0-1,8.49,8.28,8.28,0,0,0,.67,3.86,5.41,5.41,0,0,0,2.27,2.09c-.45,0-1.09,0-1.91,0-2.89,0-4.94-.44-6.16-1.34s-1.83-2.46-1.83-4.69a50.49,50.49,0,0,1,1-7.45,49.66,49.66,0,0,0,1-8.28c0-2.27-.69-3.4-2.06-3.4a4.24,4.24,0,0,0-2.68,1.39,16.38,16.38,0,0,0-2.89,3.79,23.73,23.73,0,0,0-2.32,6.16,31.2,31.2,0,0,0-.93,7.51,35.4,35.4,0,0,0,.31,5.54c-1.1.07-1.82.1-2.17.1a6.79,6.79,0,0,1-4.22-1,4.1,4.1,0,0,1-1.29-3.4q0-1,1.08-7.94a75.31,75.31,0,0,0,1.08-11,30.86,30.86,0,0,0-.87-7.55,9.59,9.59,0,0,1,5.26,3.37,8.71,8.71,0,0,1,1.49,5,40.66,40.66,0,0,1-.62,6.53,24.74,24.74,0,0,1,5.36-9.8C121.29,14.18,123.52,12.84,125.55,12.84Z"/><path class="cls-2" d="M147.92,18.36q-.25,1.84-1.08,6.44a90.42,90.42,0,0,0-1.75,14.44c0,3.13.24,5.22.72,6.29q-4-1-5.47-3.17a10.56,10.56,0,0,1-1.49-6.06,56.81,56.81,0,0,1,1.08-9.46c.72-4,1.19-6.71,1.39-8.12a25.09,25.09,0,0,0-5.72,1.8c-.07-.75-.1-1.32-.1-1.7,0-1.82.55-3.07,1.65-3.74A9.55,9.55,0,0,1,141.89,14c.24-2.57.36-4.43.36-5.56s0-2.08,0-2.84,0-1.32,0-1.7a7.58,7.58,0,0,1,5,2,6.75,6.75,0,0,1,1.55,4.76,32.56,32.56,0,0,1-.26,3.46q4.34-.11,6.34-1.7c.07.69.1,1.2.1,1.54a5.13,5.13,0,0,1-.87,3.43,3.85,3.85,0,0,1-2.94,1C149.69,18.41,148.65,18.39,147.92,18.36Z"/><path class="cls-2" d="M168.6,29.91a20.69,20.69,0,0,1-4.85-.57c0,.34-.05.87-.05,1.6q0,4.27,1.6,6.44a4.64,4.64,0,0,0,3.81,2.17,7.53,7.53,0,0,0,4.23-1.34,12.21,12.21,0,0,0,3.51-3.72c1.24.28,1.85.92,1.85,1.91q-4.53,7-11.7,7A10.3,10.3,0,0,1,159.42,40q-3.24-3.33-3.25-9.26a21.41,21.41,0,0,1,1.7-8.43,16.32,16.32,0,0,1,5.42-6.75,13.44,13.44,0,0,1,8.22-2.76q4.52,0,6.63,2.06a7.23,7.23,0,0,1,2.11,5.42c0,3.23-1.12,5.63-3.38,7.21A14,14,0,0,1,168.6,29.91ZM170.76,16q-2.62,0-4.43,3.24A21.67,21.67,0,0,0,164,27.17h.77q4.49,0,6.63-2.32a7.94,7.94,0,0,0,2.14-5.57,3.82,3.82,0,0,0-.7-2.29A2.34,2.34,0,0,0,170.76,16Z"/><path class="cls-2" d="M193.66,25.83q1.84-6.7,4.46-9.87c1.73-2.12,3.35-3.17,4.84-3.17a3.83,3.83,0,0,1,3.38,1.67,7.55,7.55,0,0,1,1.13,4.33,8.25,8.25,0,0,1-1.57,4.88,5,5,0,0,1-4.3,2.21,4.39,4.39,0,0,1-1.7-.41,7.58,7.58,0,0,0,1.59-4.85c0-1.1-.44-1.65-1.34-1.65A3,3,0,0,0,198,20.34a15.62,15.62,0,0,0-2.17,3.76,29.81,29.81,0,0,0-1.72,6.14,43,43,0,0,0-.7,8c0,.34.09,1.8.26,4.38-1.1.07-1.81.1-2.12.1a6.75,6.75,0,0,1-4.22-1,4.1,4.1,0,0,1-1.29-3.4q0-1,1.08-7.94a75.31,75.31,0,0,0,1.08-11,30.86,30.86,0,0,0-.87-7.55,9.59,9.59,0,0,1,5.26,3.37,8.9,8.9,0,0,1,1.49,5.11A32.69,32.69,0,0,1,193.66,25.83Z"/></g></g></svg>